<svg xmlns="http://www.w3.org/2000/svg" width="16.866" height="16.817" viewBox="0 0 16.866 16.817">
  <path id="bee4d62d12dd008a6ab2be9c9ad4c247" d="M16.757,11.316a2.663,2.663,0,0,1-.567-.1,7.989,7.989,0,0,1-1.109-.33,1.693,1.693,0,0,0-2.1.846l-.186.381a10.308,10.308,0,0,1-2.251-1.693A10.308,10.308,0,0,1,8.853,8.167l.355-.237a1.693,1.693,0,0,0,.846-2.1,8.742,8.742,0,0,1-.33-1.109c-.042-.186-.076-.381-.1-.576A2.539,2.539,0,0,0,7.084,2.04H4.545A2.539,2.539,0,0,0,2.006,4.926,16.08,16.08,0,0,0,15.987,18.857h.322a2.533,2.533,0,0,0,2.539-2.547V13.77A2.539,2.539,0,0,0,16.757,11.316Zm.423,5.078a.846.846,0,0,1-.288.635.9.9,0,0,1-.694.212A14.388,14.388,0,0,1,3.749,4.731a.923.923,0,0,1,.212-.694A.846.846,0,0,1,4.6,3.75H7.134a.846.846,0,0,1,.846.669q.051.347.127.686A9.411,9.411,0,0,0,8.5,6.416l-1.185.55A.846.846,0,0,0,6.9,8.091a12.263,12.263,0,0,0,5.924,5.924.9.9,0,0,0,1.126-.44l.525-1.185a11.586,11.586,0,0,0,1.337.389q.339.076.686.127a.846.846,0,0,1,.669.846Z" transform="translate(-1.982 -2.04)" fill="#030303"/>
</svg>
