<svg xmlns="http://www.w3.org/2000/svg" width="18.397" height="13.996" viewBox="0 0 18.397 13.996">
  <g id="XMLID_146_" transform="translate(-2 -123)">
    <path id="XMLID_211_" d="M50.946,193.923a1.736,1.736,0,0,1-1.259.545h-.022a1.724,1.724,0,0,1-1.263-.577L42,187.7v9.559c0,.418.216.66.343.66H57.168c.126,0,.343-.238.343-.66v-9.346Z" transform="translate(-38.557 -62.366)" fill="none"/>
    <path id="XMLID_415_" d="M79.423,168.8l.022.025a.289.289,0,0,0,.22.1.3.3,0,0,0,.224-.1l.022-.025.025-.022,6.616-6.049-6.825.011L73.1,162.7Z" transform="translate(-68.535 -38.268)" fill="none"/>
    <path id="XMLID_426_" d="M18.6,123.018l-7.406.018L3.789,123h0A1.953,1.953,0,0,0,2,125.1v9.79A1.953,1.953,0,0,0,3.786,137H18.611a1.953,1.953,0,0,0,1.786-2.1V125.1A1.932,1.932,0,0,0,18.6,123.018Zm-.581,1.443L11.4,130.51l-.025.022-.022.025a.3.3,0,0,1-.224.1.284.284,0,0,1-.22-.1l-.022-.025-6.323-6.093,6.627.043,6.825-.014Zm.592,11.092H3.786c-.126,0-.343-.238-.343-.66v-9.559l6.406,6.19a1.74,1.74,0,0,0,1.27.577h.022a1.722,1.722,0,0,0,1.255-.545l6.565-6.01v9.346C18.954,135.315,18.738,135.553,18.611,135.553Z" fill="#030303"/>
  </g>
</svg>
